<svg xmlns="http://www.w3.org/2000/svg" viewBox="0 0 793 390" width="793" height="390">
	<style>
		tspan { white-space:pre }
		.shp0 { fill: #3d4b54 } 
		.shp1 { fill: #00a8ec } 
		.shp2 { fill: #ffffff } 
	</style>
	<path id="Layer" class="shp0" d="M146.33 108.73C165.03 108.73 183.16 108.73 201.75 108.73C201.75 150.19 201.75 191.55 201.75 233.24C224.52 233.24 246.82 233.24 269.59 233.24C269.59 206.44 269.59 179.65 269.59 152.63C288.27 152.63 306.48 152.63 325.17 152.63C325.17 179.55 325.17 206.34 325.17 233.34C337.23 233.34 348.82 233.34 360.87 233.34C360.87 206.38 360.87 179.59 360.87 152.61C379.55 152.61 397.77 152.61 416.32 152.61C416.32 179.48 416.32 206.18 416.32 233.22C428.07 233.22 439.51 233.22 451.39 233.22C451.39 205.66 451.39 178.06 451.39 150.18C470.04 150.18 488.26 150.18 507.08 150.18C507.08 151.57 507.08 152.97 507.08 154.36C507.08 180.04 507.12 205.73 507.09 231.41C507.05 262.61 481.65 287.4 450.34 287.24C407.93 287.04 365.53 287.09 323.12 287.06C282.43 287.03 241.75 287.16 201.06 287C171.06 286.88 146.38 262.13 146.31 232.22C146.22 192.24 146.32 152.25 146.34 112.27C146.33 111.24 146.33 110.2 146.33 108.73Z" />
	<path id="Layer" class="shp0" d="M587.77 231.62C589.71 231.62 591.27 231.62 592.84 231.62C628.09 231.62 663.33 231.71 698.58 231.51C703.28 231.48 706.2 232.73 708.96 236.69C720.02 252.53 731.5 268.08 742.82 283.75C743.48 284.66 744.03 285.66 744.98 287.19C742.95 287.19 741.54 287.19 740.13 287.19C689.38 287.2 638.63 287.21 587.88 287.21C557.46 287.21 532.3 262.97 532.12 232.52C531.79 179.57 532.02 126.63 532.03 73.68C532.03 73.05 532.1 72.43 532.17 71.25C533.57 72.32 534.59 73.03 535.54 73.84C551.36 87.33 567.15 100.87 583.03 114.28C585.15 116.07 585.98 117.86 586.01 120.64C586.44 156.51 587 192.37 587.54 228.24C587.57 229.17 587.67 230.09 587.77 231.62Z" />
	<path id="Layer" class="shp0" d="M27.4 285.83C37.25 274.07 46.65 261.89 57.09 250.69C64.25 243.01 66.89 235.01 66.71 224.51C66.09 188.25 66.47 151.98 66.47 115.71C66.47 114.01 66.47 112.32 66.47 110.3C85.01 110.3 103.21 110.3 121.67 110.3C121.77 111.31 121.95 112.33 121.95 113.34C122 152.92 122.17 192.49 122.04 232.07C121.94 262.9 96.25 287.55 65.43 286.99C52.88 286.76 40.32 286.95 27.76 286.95C27.64 286.58 27.52 286.21 27.4 285.83Z" />
	<path id="Layer" class="shp1" d="M592.56 302.82C605.13 315.37 618.13 328.35 631.24 341.44C644.49 328.19 657.46 315.2 670.2 302.45C683.56 315.74 696.58 328.7 709.48 341.54C696.66 354.24 683.64 367.16 670.51 380.17C657.95 367.56 645.01 354.57 631.84 341.34C618.41 354.89 605.49 367.93 592.83 380.7C579.33 367.32 566.29 354.41 553.4 341.64C566.32 328.84 579.36 315.9 592.56 302.82Z" />
	<path id="Layer" class="shp1" d="M750.06 303.54C762.33 315.74 775.34 328.67 788.21 341.46C775.37 354.15 762.35 367.02 749.67 379.55C737.24 367.15 724.29 354.22 711.66 341.63C724.15 329.25 737.22 316.28 750.06 303.54Z" />
	<path id="Layer" class="shp1" d="M91.63 57.82C78.77 70.62 65.77 83.56 53.15 96.12C40.35 83.41 27.34 70.5 14.45 57.7C27.31 44.96 40.33 32.06 53.12 19.38C65.76 32 78.75 44.97 91.63 57.82Z" />
	<path id="Layer" class="shp1" d="M131.45 96.01C118.86 83.52 105.91 70.67 93.18 58.04C106.12 45.2 119.14 32.28 131.86 19.67C144.3 32.07 157.29 45.03 170.01 57.71C157.48 70.15 144.4 83.14 131.45 96.01Z" />
	<path id="Layer" class="shp1" d="M249.01 58.06C236.39 70.57 223.38 83.48 210.61 96.14C197.93 83.51 184.94 70.58 172.15 57.85C184.87 45.23 197.88 32.33 210.5 19.8C222.99 32.21 236.05 45.19 249.01 58.06Z" />
	<path id="Layer" class="shp0" d="M213.46 329.27C214.52 337.83 220.54 335.68 225.63 335.67C225.81 335.35 225.99 335.02 226.17 334.7C224.61 333.82 223.05 332.93 221.11 331.83C221.11 330.51 221.11 328.7 221.11 326.57C226.81 326.57 232.57 326.57 238.64 326.57C238.64 328.38 238.64 330.27 238.64 332.3C237.36 332.46 236.2 332.61 235.02 332.76C237.28 335.88 239.64 336.8 242.89 335.01C245.47 333.59 247.63 331.4 250.32 329.29C250.7 330.27 251.13 331.02 251.27 331.83C251.95 335.56 253.59 336.81 256.95 335.17C259.71 333.83 262.01 331.57 264.88 329.45C265.27 330.22 265.87 331.04 266.1 331.95C266.96 335.39 269.5 336.95 272.66 335.52C273.37 335.2 274.02 333.39 273.76 332.55C273.17 330.58 272.01 328.79 271.05 326.86C277.67 325.41 279.69 326.79 280.6 333.09C281.32 338.06 278.12 342.12 273 342.01C269.19 341.93 265.4 341.03 260.28 340.32C256.89 343.11 252.05 343.02 247.04 339.14C242.45 343.11 237.39 343.05 232.09 340.48C231.52 340.21 230.67 340.5 229.96 340.56C225.15 340.99 220.35 341.74 215.54 341.7C213.56 341.68 211.6 339.96 209.34 338.87C191 347.15 172.08 347.82 153.13 339.11C147.49 336.52 147.53 336.31 148.54 329.46C169.88 342.19 191.24 342.3 213.46 329.27Z" />
	<path id="Layer" class="shp0" d="M419.89 326.47C412.98 323.51 407.24 325.74 404.03 331.92C402.87 334.16 403.41 335.46 405.97 335.74C406.76 335.83 407.56 335.75 408.35 335.8C412.75 336.07 415.14 338.34 414.53 342.7C414.06 346.02 413.02 349.47 411.35 352.36C401.75 368.94 386.64 376.97 368.04 378.59C355.81 379.66 343.72 378.52 332.27 373.38C328.46 371.67 326.65 369.32 327.79 365.93C335.71 368.01 343.46 370.91 351.44 371.95C368.67 374.19 385.18 371.78 398.69 359.68C402.71 356.08 405.6 351.13 408.6 346.53C410.24 344.02 409.52 342.24 405.87 342.01C398.52 341.55 396.18 337.96 399.55 331.47C401.67 327.39 405.21 323.99 408.36 320.51C409.34 319.42 411.12 318.54 412.56 318.49C415.18 318.41 418.21 318.4 420.28 319.65C421.16 320.18 420.09 323.95 419.89 326.47Z" />
	<path id="Layer" class="shp0" d="M50.17 359.11C50.17 361.1 50.17 362.79 50.17 364.44C43.76 366.03 34.62 362.85 30.87 357.87C27.9 353.93 27.68 349.59 30.11 345.62C32.7 341.39 35.83 337.4 39.2 333.75C42.14 330.57 45.71 327.96 49.08 325.19C51.01 323.6 53.1 322.21 55.31 320.58C56.82 321.98 58.24 323.29 59.52 324.48C53.84 329.45 48.29 334.1 43 339.02C40.6 341.25 38.51 343.89 36.62 346.57C33.58 350.87 34.85 355.03 39.73 357.11C41.29 357.77 43.03 358.03 44.71 358.35C46.38 358.68 48.08 358.84 50.17 359.11Z" />
	<path id="Layer" fill-rule="evenodd" class="shp0" d="M302.86 342.02C300.5 342.02 298.09 342.28 295.77 341.96C292.33 341.48 288.65 340.66 287.63 336.72C286.59 332.72 288.02 329.1 291.1 326.37C294.22 323.61 297.94 323.34 301.44 325.35C307.6 328.9 309.1 335.23 309.98 341.56C310.64 346.37 306.86 348.86 303.46 351.16C300.77 352.98 297.82 354.41 294.71 356.17C293.6 351.9 294.16 349.19 298.18 347.5C300.19 346.65 301.74 344.7 303.5 343.24C303.27 342.83 303.07 342.42 302.86 342.02ZM301.29 335.77C301.45 335.45 301.6 335.12 301.76 334.8C300.66 333.57 299.73 332.09 298.4 331.2C297.68 330.71 295.98 330.84 295.28 331.39C294.53 331.97 294.09 333.44 294.21 334.43C294.28 334.97 295.76 335.58 296.67 335.71C298.18 335.92 299.75 335.77 301.29 335.77Z" />
	<path id="Layer" class="shp0" d="M362.19 326.61C369.13 325.79 371.49 327.57 372.01 333.64C372.44 338.64 369 342.01 363.37 342.09C361.78 342.11 360.19 342.09 358.61 342.1C350.42 342.12 348.46 340.65 346.03 332.66C345.88 332.17 345.75 331.67 344.58 330.71C343.92 332.08 342.61 333.49 342.71 334.8C343 338.64 343.22 338.63 339.93 341.69C336.99 339.13 334.98 336.21 336.08 332.08C337 328.63 342.92 323.19 346.04 323.26C347.41 323.29 349 324.24 350.03 325.25C350.89 326.08 351.17 327.58 351.54 328.83C353.58 335.82 356.25 337.45 363.42 335.62C364.2 335.42 365.25 333.52 365.03 332.7C364.5 330.69 363.31 328.88 362.19 326.61Z" />
	<path id="Layer" class="shp0" d="M478.7 312.14C480.86 312.14 482.66 312.14 484.95 312.14C484.95 318.31 484.92 324.36 484.96 330.41C484.99 334.75 486 335.71 490.38 335.78C499.06 335.93 499.06 335.93 495.34 328.23C495.12 327.77 494.92 327.31 494.69 326.8C501.4 325.4 503.61 326.95 504.3 333.34C504.85 338.41 501.72 341.93 496.42 342.06C492.71 342.15 489 342.15 485.29 342.05C481.64 341.95 478.93 340.09 478.79 336.41C478.5 328.4 478.7 320.36 478.7 312.14Z" />
	<path id="Layer" class="shp0" d="M76.84 356.84C75.55 351.74 76.29 349.29 80 347.37C85.86 344.34 86.37 342.97 83.95 336.93C82.19 332.53 85.64 331.48 87.5 329.25C87.86 329.47 88.16 329.55 88.24 329.73C91.03 335.82 93.07 336.85 99.89 335.77C102.25 335.4 102.8 334.28 101.75 332.21C100.86 330.46 99.99 328.7 98.61 325.95C101.71 326.41 105 325.93 106.1 327.26C108.38 330.03 109.93 333.69 108.12 337.6C106.76 340.53 104.44 342.01 101.22 342.08C100.43 342.1 99.63 342.12 98.84 342.09C95.06 341.96 92.37 342.13 89.82 346.5C87.35 350.74 81.72 353.14 76.84 356.84Z" />
	<path id="Layer" class="shp0" d="M116.34 312.22C118.31 312.22 120.11 312.22 122.12 312.22C122.12 322.09 122.12 331.79 122.12 341.79C120.28 341.79 118.5 341.79 116.34 341.79C116.34 332.15 116.34 322.36 116.34 312.22Z" />
	<path id="Layer" class="shp0" d="M447.11 312.12C449.09 312.12 450.79 312.12 452.82 312.12C452.82 321.98 452.82 331.77 452.82 341.82C451.01 341.82 449.23 341.82 447.11 341.82C447.11 332.09 447.11 322.3 447.11 312.12Z" />
	<path id="Layer" class="shp0" d="M66.42 312.23C68.51 312.23 70.31 312.23 72.35 312.23C72.35 322.1 72.35 331.78 72.35 341.78C70.41 341.78 68.54 341.78 66.42 341.78C66.42 331.97 66.42 322.29 66.42 312.23Z" />
	<path id="Layer" class="shp0" d="M424.85 355.39C423.61 351.55 424.79 349.19 428.54 347.24C434.2 344.29 434.7 342.91 432.33 337.07C430.49 332.54 433.85 331.38 436.11 329.16C443.25 343.51 440.01 350.93 424.85 355.39Z" />
	<path id="Layer" class="shp0" d="M456.64 355.71C455.7 351.96 456.24 349.48 460.02 347.55C466.01 344.48 466.53 343.06 464.04 336.83C462.27 332.4 465.95 331.5 467.58 328.93C474.75 343.75 473.55 348.72 456.64 355.71Z" />
	<path id="Layer" class="shp0" d="M40.36 318.91C37.88 320.8 36.23 322.94 35.1 322.7C33.55 322.37 32.38 320.23 31.05 318.86C32.34 317.63 33.55 315.55 34.96 315.41C36.3 315.28 37.84 317.17 40.36 318.91Z" />
	<path id="Layer" class="shp0" d="M179.4 324.7C177.48 322.14 175.57 320.71 175.61 319.32C175.64 317.92 177.6 316.56 178.71 315.18C180.1 316.44 182.26 317.52 182.63 319.03C182.92 320.24 181.04 321.98 179.4 324.7Z" />
	<path id="Layer" class="shp0" d="M182.49 318.95C185.06 317.14 186.58 315.25 187.85 315.4C189.25 315.56 191.17 317.43 191.52 318.89C192.1 321.27 190.23 323.13 187.84 322.8C186.34 322.6 185.04 320.87 182.49 318.95Z" />
	<path id="Layer" class="shp0" d="M462.86 313.5C464.58 316.04 466.47 317.62 466.27 318.87C466.06 320.23 463.9 322.19 462.59 322.19C461.35 322.19 459.22 320.05 459.12 318.73C459.03 317.43 460.98 315.97 462.86 313.5Z" />
	<path id="Layer" class="shp0" d="M105.18 347.1C107.15 349.59 109.16 351.02 109.08 352.34C109 353.73 106.97 355.99 105.73 356.04C104.45 356.09 102.26 354.08 101.99 352.68C101.74 351.42 103.56 349.76 105.18 347.1Z" />
	<path id="Layer" class="shp0" d="M100.97 353.42C99.51 354.39 97.9 356.29 96.64 356.08C95.26 355.85 93.45 353.78 93.25 352.31C93.11 351.31 95.37 349.09 96.63 349.03C98.04 348.97 99.52 350.74 100.98 351.71C100.97 352.29 100.97 352.86 100.97 353.42Z" />
	<path id="Layer" class="shp0" d="M364.46 357.77C362.64 355.5 360.59 354.06 360.64 352.7C360.69 351.36 362.87 350.11 364.12 348.82C365.4 350.1 367.41 351.21 367.73 352.7C367.98 353.82 366.08 355.41 364.46 357.77Z" />
	<path id="Layer" class="shp0" d="M501.8 352.8C499.4 354.45 497.82 356.34 496.73 356.09C495.25 355.75 494.15 353.78 492.89 352.5C494.16 351.27 495.38 349.15 496.72 349.07C498.04 349 499.48 350.99 501.8 352.8Z" />
	<path id="Layer" class="shp2" d="M220.29 379.77C218.75 379.77 217.18 379.92 215.67 379.71C214.76 379.58 213.28 378.97 213.21 378.43C213.09 377.44 213.53 375.97 214.28 375.39C214.98 374.84 216.68 374.71 217.4 375.2C218.73 376.09 219.66 377.57 220.76 378.8C220.6 379.12 220.45 379.45 220.29 379.77Z" />
</svg>